PathFileType	4	(X/Y/Z)	Run_400 02
DataRate	CameraRate	NumFrames	NumMarkers	Units	OrigDataRate	OrigDataStartFrame	OrigNumFrames
100	100	4	45	mm	100	271	137
Frame#	Time	LASI			RASI			LPSI			RPSI			RTH1			RTH2			RTH3			LTH1			LTH2			LTH3			RTB1			RTB2			RTB3			RLMAL			RMMAL			LTB1			LTB2			LTB3			RCAL			RTOE			RMT5			LCAL			LTOE			LMT5			LACR			RACR			CLAV			C7			LPSH			RUA1			RUA2			RUA3			RLEL			RMEL			LUA1			LUA2			LUA3			LLEL			LMEL			RFAsuperior			RFAradius			RFAulna			LFAsuperior			LFAradius			LFAulna		
		X1	Y1	Z1	X2	Y2	Z2	X3	Y3	Z3	X4	Y4	Z4	X5	Y5	Z5	X6	Y6	Z6	X7	Y7	Z7	X8	Y8	Z8	X9	Y9	Z9	X10	Y10	Z10	X11	Y11	Z11	X12	Y12	Z12	X13	Y13	Z13	X14	Y14	Z14	X15	Y15	Z15	X16	Y16	Z16	X17	Y17	Z17	X18	Y18	Z18	X19	Y19	Z19	X20	Y20	Z20	X21	Y21	Z21	X22	Y22	Z22	X23	Y23	Z23	X24	Y24	Z24	X25	Y25	Z25	X26	Y26	Z26	X27	Y27	Z27	X28	Y28	Z28	X29	Y29	Z29	X30	Y30	Z30	X31	Y31	Z31	X32	Y32	Z32	X33	Y33	Z33	X34	Y34	Z34	X35	Y35	Z35	X36	Y36	Z36	X37	Y37	Z37	X38	Y38	Z38	X39	Y39	Z39	X40	Y40	Z40	X41	Y41	Z41	X42	Y42	Z42	X43	Y43	Z43	X44	Y44	Z44	X45	Y45	Z45	

271	  2.710000	975.954127	1082.205009	-442.596386	972.963418	1095.546114	-209.668324	812.107064	1122.834037	-376.775111	810.944849	1121.135636	-287.811623	946.692789	835.259080	-152.382130	1043.273240	793.931543	-176.688085	1013.564288	679.117382	-185.724225	833.569602	865.803299	-481.367883	877.494799	742.673579	-467.606015	802.089207	661.522730	-450.276198	1131.517364	459.817894	-235.728195	1101.904513	394.407581	-196.857334	1149.854270	278.390778	-249.961606	1132.428477	153.975753	-242.535023	1152.400858	189.093478	-318.298432	683.088072	485.534241	-411.413477	563.945992	552.867912	-419.007182	491.530939	469.041878	-384.437398	1079.858115	134.510402	-311.838396	1302.458716	130.640022	-287.284414	1236.814036	 85.500326	-224.801201	346.454883	542.140833	-317.990662	320.332299	323.068949	-357.235897	293.949348	387.978217	-413.747560	943.451654	1602.757043	-449.106427	919.123344	1558.756835	-142.280437	992.474551	1512.394868	-273.007924	882.715381	1600.186029	-299.281355	865.870687	1564.854653	-475.822299	827.732202	1440.312625	-61.118403	743.372346	1415.182276	-94.656046	721.822551	1365.877828	-49.556360	706.305412	1300.140655	-18.347998	689.234825	1288.706196	-105.864957	881.790177	1492.184225	-546.403381	819.813496	1415.897581	-555.524222	851.662884	1379.886160	-614.281379	863.044736	1303.090353	-643.497550	807.217068	1281.616785	-572.383973	747.247184	1232.566090	-28.706431	940.779762	1213.845628	-78.840181	918.003568	1151.611363	-65.137958	924.327043	1256.690159	-582.468495	1031.025762	1328.341475	-459.894227	1050.326047	1264.775862	-475.489638	
272	  2.720000	974.524772	1075.841331	-441.643857	971.383763	1089.702485	-209.246180	810.559394	1115.990250	-375.504878	809.280167	1115.395085	-286.690830	945.349960	830.768362	-154.514576	1041.737525	791.625493	-177.678597	1009.624156	674.759171	-187.464456	837.741415	856.248998	-480.474522	886.622558	735.106451	-468.828876	815.104006	651.583615	-450.778870	1121.183384	450.387856	-237.901057	1088.947049	385.742381	-199.116129	1133.216530	268.071170	-252.218185	1111.174273	144.055087	-245.227273	1132.944156	178.806576	-321.020544	699.010951	481.651748	-413.180754	583.681293	555.461332	-421.554487	507.027437	476.551575	-386.450938	1058.151143	127.403579	-315.196464	1279.987964	113.666298	-290.185615	1211.955736	 71.011575	-228.336589	366.285441	557.577092	-320.401211	330.527852	340.096722	-360.831345	307.562675	406.467737	-417.191827	943.324025	1596.574073	-448.787482	921.730914	1551.588788	-141.276390	992.909605	1505.952094	-273.051439	882.850271	1594.111533	-298.455496	865.243727	1559.181978	-474.562758	833.205529	1431.871226	-57.859300	748.228980	1405.683958	-88.938359	728.678646	1355.982392	-43.405498	714.218214	1290.288232	-11.758109	696.176177	1278.393462	-98.949176	878.746158	1488.992684	-546.280396	815.193502	1414.491397	-555.681760	845.064124	1378.955609	-615.903648	853.874983	1302.414625	-646.956347	799.158894	1280.904014	-575.408842	755.275012	1222.539756	-22.690054	948.041000	1203.792337	-76.165069	925.523671	1141.795890	-61.458143	914.493176	1249.999262	-589.866855	1027.835211	1310.592617	-467.093164	1044.093064	1247.468599	-486.996116	
273	  2.730000	972.586427	1068.791027	-440.176493	969.582562	1082.855138	-208.171474	809.392503	1108.354755	-374.699256	806.912250	1108.136202	-285.434393	943.957905	824.404643	-157.450898	1039.313772	787.759093	-181.355806	1005.174317	669.055601	-189.378632	842.479568	846.366078	-480.135291	896.559825	727.362020	-470.473384	829.382337	641.234709	-451.811073	1109.494588	439.405011	-240.562596	1074.810019	376.248434	-201.097454	1112.975180	256.375016	-254.386009	1085.285420	133.770015	-246.790055	1107.424043	166.903118	-323.214537	717.127169	477.234003	-415.477966	605.595467	556.655478	-424.433106	525.360367	482.243628	-388.938278	1029.895749	118.889169	-317.062138	1251.698778	 95.603583	-294.517742	1181.521507	 59.251426	-230.273517	388.069494	570.149046	-323.212699	345.697926	354.040029	-364.408077	324.918284	421.307197	-420.619213	942.706244	1589.257620	-449.209808	924.258223	1543.419744	-140.399046	993.366151	1498.780141	-273.122690	883.124894	1587.112720	-297.896926	864.091913	1552.145206	-473.476968	839.219500	1422.095512	-54.564925	753.558169	1394.804919	-83.072260	736.178178	1344.744414	-37.101370	722.990216	1279.111382	 -4.943621	703.461716	1266.782106	-91.588180	874.998040	1484.488427	-546.206787	810.274145	1411.661776	-555.597191	837.927814	1376.699257	-617.363784	843.981096	1300.542041	-650.197302	790.563246	1279.168784	-578.156923	764.226824	1211.227555	-16.640026	956.082889	1192.762073	-73.844642	933.919813	1131.028492	-58.199216	903.587570	1242.270876	-597.480432	1023.369642	1291.601627	-475.948711	1036.459011	1228.976029	-500.537865	
274	  2.740000	970.279301	1061.203187	-438.460538	967.906573	1075.316368	-206.308755	808.269792	1100.041203	-374.076067	804.200020	1099.562694	-284.113181	941.465961	815.929187	-159.128618	1035.441366	780.425296	-186.763761	1000.068793	660.796059	-191.122030	847.676543	836.294225	-480.170537	907.400460	719.622649	-472.459547	844.891804	630.744446	-453.332142	1095.989685	426.925540	-244.350226	1059.456571	365.610777	-203.952439	1088.645450	243.680030	-257.785716	1054.265472	124.404256	-248.595170	1074.826478	154.643348	-326.161773	737.370322	472.390062	-418.251274	629.491716	556.558099	-427.581328	546.263085	486.004041	-391.853479	995.047692	109.600382	-318.622951	1218.214709	 80.718341	-299.348075	1146.427804	 52.845010	-230.973213	411.472924	579.866203	-326.527884	364.976925	364.688681	-367.723869	345.667663	432.342398	-424.046465	941.718746	1580.745457	-450.070271	926.849116	1534.399641	-139.678544	993.881673	1490.787428	-273.258355	883.579451	1579.115268	-297.442080	862.577388	1543.866116	-472.551233	845.783996	1411.151082	-51.321547	759.412536	1382.718357	-77.178692	744.378551	1332.339538	-30.732915	732.694424	1266.784464	  1.777124	711.311798	1254.013320	-84.072678	870.686195	1478.672442	-546.107381	805.021671	1407.376315	-555.098767	830.188673	1373.229498	-618.570573	833.394466	1297.586712	-653.164772	781.562680	1276.311086	-580.575312	774.123762	1198.880866	-10.759179	964.958703	1181.096104	-71.977750	943.174743	1119.544610	-55.501527	891.760355	1233.754048	-605.332803	1017.739371	1271.812786	-486.501689	1027.332881	1209.754233	-515.102175	
